<mxfile host="Electron" modified="2024-05-13T16:40:57.843Z" agent="Mozilla/5.0 (X11; Linux x86_64) AppleWebKit/537.36 (KHTML, like Gecko) draw.io/24.2.5 Chrome/120.0.6099.109 Electron/28.1.0 Safari/537.36" etag="YboOaYK-NRAKMAuhrlrR" version="24.2.5" type="device">
  <diagram name="Page-1" id="66xErbalUjKLUN06YY8X">
    <mxGraphModel dx="1364" dy="843" grid="1" gridSize="10" guides="1" tooltips="1" connect="1" arrows="1" fold="1" page="1" pageScale="1" pageWidth="850" pageHeight="1100" math="0" shadow="0">
      <root>
        <mxCell id="0" />
        <mxCell id="1" parent="0" />
        <mxCell id="EcnW9ldfxfrg1pK1NZk_-1" value="Task" style="swimlane;fontStyle=1;align=center;verticalAlign=top;childLayout=stackLayout;horizontal=1;startSize=26;horizontalStack=0;resizeParent=1;resizeParentMax=0;resizeLast=0;collapsible=1;marginBottom=0;whiteSpace=wrap;html=1;" vertex="1" parent="1">
          <mxGeometry x="40" y="120" width="160" height="182" as="geometry" />
        </mxCell>
        <mxCell id="EcnW9ldfxfrg1pK1NZk_-2" value="int priority" style="text;strokeColor=none;fillColor=none;align=left;verticalAlign=top;spacingLeft=4;spacingRight=4;overflow=hidden;rotatable=0;points=[[0,0.5],[1,0.5]];portConstraint=eastwest;whiteSpace=wrap;html=1;" vertex="1" parent="EcnW9ldfxfrg1pK1NZk_-1">
          <mxGeometry y="26" width="160" height="26" as="geometry" />
        </mxCell>
        <mxCell id="EcnW9ldfxfrg1pK1NZk_-5" value="int tick_interval" style="text;strokeColor=none;fillColor=none;align=left;verticalAlign=top;spacingLeft=4;spacingRight=4;overflow=hidden;rotatable=0;points=[[0,0.5],[1,0.5]];portConstraint=eastwest;whiteSpace=wrap;html=1;" vertex="1" parent="EcnW9ldfxfrg1pK1NZk_-1">
          <mxGeometry y="52" width="160" height="26" as="geometry" />
        </mxCell>
        <mxCell id="EcnW9ldfxfrg1pK1NZk_-6" value="Operation task_opt" style="text;strokeColor=none;fillColor=none;align=left;verticalAlign=top;spacingLeft=4;spacingRight=4;overflow=hidden;rotatable=0;points=[[0,0.5],[1,0.5]];portConstraint=eastwest;whiteSpace=wrap;html=1;" vertex="1" parent="EcnW9ldfxfrg1pK1NZk_-1">
          <mxGeometry y="78" width="160" height="26" as="geometry" />
        </mxCell>
        <mxCell id="EcnW9ldfxfrg1pK1NZk_-7" value="int max_runtime" style="text;strokeColor=none;fillColor=none;align=left;verticalAlign=top;spacingLeft=4;spacingRight=4;overflow=hidden;rotatable=0;points=[[0,0.5],[1,0.5]];portConstraint=eastwest;whiteSpace=wrap;html=1;" vertex="1" parent="EcnW9ldfxfrg1pK1NZk_-1">
          <mxGeometry y="104" width="160" height="26" as="geometry" />
        </mxCell>
        <mxCell id="EcnW9ldfxfrg1pK1NZk_-8" value="Task *lower_priority" style="text;strokeColor=none;fillColor=none;align=left;verticalAlign=top;spacingLeft=4;spacingRight=4;overflow=hidden;rotatable=0;points=[[0,0.5],[1,0.5]];portConstraint=eastwest;whiteSpace=wrap;html=1;" vertex="1" parent="EcnW9ldfxfrg1pK1NZk_-1">
          <mxGeometry y="130" width="160" height="26" as="geometry" />
        </mxCell>
        <mxCell id="EcnW9ldfxfrg1pK1NZk_-9" value="Task *higher_priority" style="text;strokeColor=none;fillColor=none;align=left;verticalAlign=top;spacingLeft=4;spacingRight=4;overflow=hidden;rotatable=0;points=[[0,0.5],[1,0.5]];portConstraint=eastwest;whiteSpace=wrap;html=1;" vertex="1" parent="EcnW9ldfxfrg1pK1NZk_-1">
          <mxGeometry y="156" width="160" height="26" as="geometry" />
        </mxCell>
        <mxCell id="EcnW9ldfxfrg1pK1NZk_-14" value="«interface»&lt;br&gt;&lt;b&gt;void Operation(TaskManager task_manager)&lt;/b&gt;" style="html=1;whiteSpace=wrap;" vertex="1" parent="1">
          <mxGeometry x="20" y="5" width="460" height="50" as="geometry" />
        </mxCell>
        <mxCell id="EcnW9ldfxfrg1pK1NZk_-25" value="Vertical Container" style="swimlane;whiteSpace=wrap;html=1;" vertex="1" parent="1">
          <mxGeometry x="510" y="5" width="520" height="425" as="geometry" />
        </mxCell>
        <mxCell id="EcnW9ldfxfrg1pK1NZk_-15" value="TaskManager" style="swimlane;fontStyle=1;align=center;verticalAlign=top;childLayout=stackLayout;horizontal=1;startSize=26;horizontalStack=0;resizeParent=1;resizeParentMax=0;resizeLast=0;collapsible=1;marginBottom=0;whiteSpace=wrap;html=1;" vertex="1" parent="EcnW9ldfxfrg1pK1NZk_-25">
          <mxGeometry x="10" y="35" width="160" height="104" as="geometry" />
        </mxCell>
        <mxCell id="EcnW9ldfxfrg1pK1NZk_-16" value="int middle_priority" style="text;strokeColor=none;fillColor=none;align=left;verticalAlign=top;spacingLeft=4;spacingRight=4;overflow=hidden;rotatable=0;points=[[0,0.5],[1,0.5]];portConstraint=eastwest;whiteSpace=wrap;html=1;" vertex="1" parent="EcnW9ldfxfrg1pK1NZk_-15">
          <mxGeometry y="26" width="160" height="26" as="geometry" />
        </mxCell>
        <mxCell id="EcnW9ldfxfrg1pK1NZk_-24" value="Task *lower_priority" style="text;strokeColor=none;fillColor=none;align=left;verticalAlign=top;spacingLeft=4;spacingRight=4;overflow=hidden;rotatable=0;points=[[0,0.5],[1,0.5]];portConstraint=eastwest;whiteSpace=wrap;html=1;" vertex="1" parent="EcnW9ldfxfrg1pK1NZk_-15">
          <mxGeometry y="52" width="160" height="26" as="geometry" />
        </mxCell>
        <mxCell id="EcnW9ldfxfrg1pK1NZk_-23" value="Task *higher_priority" style="text;strokeColor=none;fillColor=none;align=left;verticalAlign=top;spacingLeft=4;spacingRight=4;overflow=hidden;rotatable=0;points=[[0,0.5],[1,0.5]];portConstraint=eastwest;whiteSpace=wrap;html=1;" vertex="1" parent="EcnW9ldfxfrg1pK1NZk_-15">
          <mxGeometry y="78" width="160" height="26" as="geometry" />
        </mxCell>
        <mxCell id="EcnW9ldfxfrg1pK1NZk_-26" value="" style="rounded=0;whiteSpace=wrap;html=1;" vertex="1" parent="EcnW9ldfxfrg1pK1NZk_-25">
          <mxGeometry x="210" y="35" width="120" height="60" as="geometry" />
        </mxCell>
        <mxCell id="EcnW9ldfxfrg1pK1NZk_-27" value="Vertical Container" style="swimlane;whiteSpace=wrap;html=1;" vertex="1" parent="1">
          <mxGeometry x="20" y="80" width="460" height="350" as="geometry" />
        </mxCell>
        <mxCell id="EcnW9ldfxfrg1pK1NZk_-28" value="Task *generate_task(const int priority, const int tick_interval, const Operation" style="rounded=0;whiteSpace=wrap;html=1;" vertex="1" parent="EcnW9ldfxfrg1pK1NZk_-27">
          <mxGeometry x="200" y="40" width="240" height="60" as="geometry" />
        </mxCell>
      </root>
    </mxGraphModel>
  </diagram>
</mxfile>
